<svg id="Chess" xmlns="http://www.w3.org/2000/svg" viewBox="0 0 81 81"><defs><style>.cls-1{fill:#ffb25f;}.cls-2{fill:#f89622;}.cls-3{fill:#d36e00;}.cls-4{fill:#fff;}.cls-5{fill:#e31b24;}.cls-6{fill:#9b251f;}</style></defs><path class="cls-1" d="M40.55,51.73h9.34c2.18,0,4,3.75,4,8.37H40.55Z"/><path class="cls-2" d="M40.55,51.73H31.21c-2.19,0-3.95,3.75-3.95,8.37H40.55Z"/><path class="cls-1" d="M51.84,51.73c0-11.34-8.09-15.16-8.09-20.16h-3.2V51.73Z"/><path class="cls-2" d="M29.26,51.73c0-11.34,8.08-15.16,8.08-20.16h3.21V51.73Z"/><path class="cls-3" d="M25.67,60.13H55.43a4.32,4.32,0,0,1,4.32,4.32H21.35A4.31,4.31,0,0,1,25.67,60.13Z"/><circle class="cls-2" cx="40.55" cy="20.88" r="8.01"/><path class="cls-1" d="M48.56,20.88c0,.1,0,.21,0,.31a6.33,6.33,0,1,1-8.31-8.31h.31A8,8,0,0,1,48.56,20.88Z"/><path class="cls-4" d="M40.06,18.51a2.76,2.76,0,1,0,2.76-2.76A2.76,2.76,0,0,0,40.06,18.51Z"/><path class="cls-1" d="M37.75,31.93h5.59a1.88,1.88,0,0,0,1.87-1.87h0a1.87,1.87,0,0,0-1.87-1.87H37.75a1.87,1.87,0,0,0-1.86,1.87h0A1.88,1.88,0,0,0,37.75,31.93Z"/><path class="cls-3" d="M43.34,31.93H37.75a1.88,1.88,0,0,1-1.86-1.87h9.32A1.88,1.88,0,0,1,43.34,31.93Z"/><path class="cls-5" d="M20.42,67.87H60.68a1.71,1.71,0,0,0,1.7-1.71h0a1.71,1.71,0,0,0-1.7-1.71H20.42a1.72,1.72,0,0,0-1.71,1.71h0A1.72,1.72,0,0,0,20.42,67.87Z"/><path class="cls-6" d="M60.68,67.87H20.42a1.72,1.72,0,0,1-1.71-1.71H62.38A1.71,1.71,0,0,1,60.68,67.87Z"/><path class="cls-4" d="M49.31,51.73c0-11.34-7.12-14.8-7.12-19.8H41.11c0,5.76,4.1,10.93,4.1,19.8Z"/><path class="cls-4" d="M49.5,53.07a14.17,14.17,0,0,1,1.79,7H46.61a19.36,19.36,0,0,0-1.4-7Z"/><path class="cls-3" d="M28.84,53.07H52.26a.67.67,0,0,0,.67-.67h0a.67.67,0,0,0-.67-.67H28.84a.68.68,0,0,0-.68.67h0A.68.68,0,0,0,28.84,53.07Z"/></svg>