<svg id="Chess" xmlns="http://www.w3.org/2000/svg" viewBox="0 0 71 71"><defs><style>.cls-1{fill:#ffb25f;}.cls-2{fill:#f89622;}.cls-3{fill:#d36e00;}.cls-4{fill:#e31b24;}.cls-5{fill:#9b251f;}.cls-6{fill:#fff;}</style></defs><path class="cls-1" d="M27.34,18.63c0-4.7,4.25-11.63,8.13-8.15V25.91C31,25.91,27.34,23.32,27.34,18.63Z"/><path class="cls-2" d="M43.6,18.63c0-4.7-4.25-11.63-8.13-8.15V25.91C40,25.91,43.6,23.32,43.6,18.63Z"/><path class="cls-3" d="M47.83,59.24H23.11a3.6,3.6,0,0,0-3.6,3.6H51.42A3.59,3.59,0,0,0,47.83,59.24Z"/><path class="cls-4" d="M52.19,65.68H18.74a1.43,1.43,0,0,1-1.42-1.42h0a1.42,1.42,0,0,1,1.42-1.42H52.19a1.41,1.41,0,0,1,1.42,1.42h0A1.42,1.42,0,0,1,52.19,65.68Z"/><path class="cls-5" d="M18.74,65.68H52.19a1.42,1.42,0,0,0,1.42-1.42H17.32A1.43,1.43,0,0,0,18.74,65.68Z"/><rect class="cls-2" x="23.4" y="57.82" width="24.13" height="1.43"/><path class="cls-3" d="M48.86,57.82H22.08a1.17,1.17,0,0,1-1.16-1.17h0a1.17,1.17,0,0,1,1.16-1.16H48.86A1.17,1.17,0,0,1,50,56.65h0A1.17,1.17,0,0,1,48.86,57.82Z"/><rect class="cls-6" x="28.58" y="57.82" width="4.15" height="1.43"/><path class="cls-1" d="M26.23,55.49V54.12a4.12,4.12,0,0,1,1.15-2.86l.09-.09a3.51,3.51,0,0,0,1-2.42l1.85-15.32a5.08,5.08,0,0,0-1.21-3.29h0a3.86,3.86,0,0,1-.55-.83,2.36,2.36,0,0,1,.63-2.81h0a2.42,2.42,0,0,1,1.58-.59h4.73V55.49Z"/><path class="cls-2" d="M44.71,55.49V54.12a4.16,4.16,0,0,0-1.15-2.86l-.09-.09a3.51,3.51,0,0,1-1-2.42L40.64,33.43a5,5,0,0,1,1.22-3.29h0a3.86,3.86,0,0,0,.55-.83,2.36,2.36,0,0,0-.63-2.81h0a2.42,2.42,0,0,0-1.58-.59H35.47V55.49Z"/><rect class="cls-3" x="27.09" y="24.05" width="16.77" height="1.86" rx="0.93"/><circle class="cls-4" cx="35.47" cy="8.29" r="2.62" transform="translate(4.52 27.51) rotate(-45)"/><circle class="cls-6" cx="34.97" cy="7.79" r="1.1"/><path class="cls-6" d="M30,55.49V54.12a9.62,9.62,0,0,1,.4-2.86l0-.09a8.23,8.23,0,0,0,.33-2.42l1.51-15.32a12.08,12.08,0,0,0-.41-3.29h0a10,10,0,0,1-.34-2.7V25.91h2.26c0,2,.27,5,.27,7,0,11.1-.88,13-.88,22.58Z"/><path class="cls-6" d="M32.85,14a1.2,1.2,0,1,1-1.19-1.19A1.19,1.19,0,0,1,32.85,14Z"/><path class="cls-6" d="M33.43,18.57a2,2,0,1,1-2-2A2,2,0,0,1,33.43,18.57Z"/></svg>