<svg id="Chess" xmlns="http://www.w3.org/2000/svg" viewBox="0 0 81 81"><defs><style>.cls-1{fill:#d36e00;}.cls-2{fill:#e31b24;}.cls-3{fill:#9b251f;}.cls-4{fill:#f89622;}.cls-5{fill:#ffb25f;}.cls-6{fill:#fff;}</style></defs><path class="cls-1" d="M57.78,62.57H27.13A4.46,4.46,0,0,0,22.67,67H62.23A4.45,4.45,0,0,0,57.78,62.57Z"/><path class="cls-2" d="M63.19,70.54H21.72A1.76,1.76,0,0,1,20,68.78h0A1.76,1.76,0,0,1,21.72,67H63.19A1.76,1.76,0,0,1,65,68.78h0A1.76,1.76,0,0,1,63.19,70.54Z"/><path class="cls-3" d="M21.72,70.54H63.19A1.76,1.76,0,0,0,65,68.78H20A1.76,1.76,0,0,0,21.72,70.54Z"/><rect class="cls-4" x="28.05" y="60.86" width="28.81" height="1.71"/><path class="cls-5" d="M58.44,60.86h-32a1.38,1.38,0,0,1-1.38-1.39h0a1.38,1.38,0,0,1,1.38-1.38h32a1.39,1.39,0,0,1,1.39,1.38h0A1.39,1.39,0,0,1,58.44,60.86Z"/><rect class="cls-4" x="28.05" y="56.38" width="28.81" height="1.71"/><path class="cls-5" d="M58.44,56.38h-32A1.38,1.38,0,0,1,25.08,55h0a1.38,1.38,0,0,1,1.38-1.39h32A1.39,1.39,0,0,1,59.83,55h0A1.39,1.39,0,0,1,58.44,56.38Z"/><path class="cls-5" d="M29,53.61l-1.4-2.25a5.11,5.11,0,0,1-.14-5.13L33.6,27.86a5.42,5.42,0,0,0,.67-2.61v-4h8.18V53.61Z"/><path class="cls-4" d="M55.87,53.61l1.4-2.25a5.09,5.09,0,0,0,.14-5.13l-6.1-18.37a5.42,5.42,0,0,1-.67-2.61v-4H42.45V53.61Z"/><rect class="cls-1" x="34.27" y="21.28" width="16.37" height="2.91"/><path class="cls-5" d="M54.88,18.43V12a1.48,1.48,0,0,0-1.48-1.48H49.76A1.47,1.47,0,0,0,48.29,12v3.57H45.75V12a1.48,1.48,0,0,0-1.48-1.48H40.64A1.48,1.48,0,0,0,39.16,12v3.57H36.62V12a1.48,1.48,0,0,0-1.48-1.48H31.51A1.48,1.48,0,0,0,30,12v6.41h0a2.86,2.86,0,0,0,2.85,2.85H52a2.86,2.86,0,0,0,2.85-2.85Z"/><path class="cls-4" d="M53.4,10.54H49.76A1.47,1.47,0,0,0,48.29,12v3.57H45.75V12a1.48,1.48,0,0,0-1.48-1.48H42.45V21.28H52a2.86,2.86,0,0,0,2.85-2.85h0V12A1.48,1.48,0,0,0,53.4,10.54Z"/><path class="cls-1" d="M27.63,51.36,29,53.61H42.45V51.19H27.55Z"/><path class="cls-1" d="M57.27,51.36l-1.4,2.25H42.45V51.19H57.36A1.4,1.4,0,0,1,57.27,51.36Z"/><polygon class="cls-6" points="37.61 24.2 37.61 26.95 32.1 47.66 32.1 51.19 37.06 51.19 37.06 47.66 40.51 26.95 40.51 24.2 37.61 24.2"/><rect class="cls-6" x="32.1" y="56.38" width="4.95" height="1.71"/><rect class="cls-6" x="32.1" y="60.86" width="4.95" height="1.71"/></svg>