<svg id="Chess" xmlns="http://www.w3.org/2000/svg" viewBox="0 0 71 71"><defs><style>.cls-1{fill:#e31b24;}.cls-2{fill:#d36e00;}.cls-3{fill:#9b251f;}.cls-4{fill:#f89622;}.cls-5{fill:#fff;}.cls-6{fill:#ffb25f;}</style></defs><path class="cls-1" d="M35.88,15.3h0a.59.59,0,0,1-.59-.59V7.46a.59.59,0,0,1,.59-.6h0a.6.6,0,0,1,.6.6v7.25A.6.6,0,0,1,35.88,15.3Z"/><path class="cls-1" d="M38.86,9.88h0a.6.6,0,0,1-.6.6H33.51a.6.6,0,0,1-.6-.6h0a.59.59,0,0,1,.6-.59h4.75A.59.59,0,0,1,38.86,9.88Z"/><path class="cls-2" d="M45,60.75H26.75a2.66,2.66,0,0,0-2.65,2.66H47.67A2.66,2.66,0,0,0,45,60.75Z"/><path class="cls-1" d="M48.24,65.5H23.53a1,1,0,0,1-1.05-1h0a1,1,0,0,1,1.05-1H48.24a1,1,0,0,1,1,1h0A1,1,0,0,1,48.24,65.5Z"/><path class="cls-3" d="M23.53,65.5H48.24a1,1,0,0,0,1-1H22.48A1,1,0,0,0,23.53,65.5Z"/><rect class="cls-4" x="26.97" y="59.7" width="17.82" height="1.06"/><path class="cls-2" d="M45.18,59.7H26.58a.8.8,0,0,1-.8-.81h0a.8.8,0,0,1,.8-.8h18.6a.8.8,0,0,1,.81.8h0A.81.81,0,0,1,45.18,59.7Z"/><rect class="cls-5" x="30.8" y="59.7" width="3.06" height="1.06"/><path class="cls-6" d="M28.32,58.09V57a3.4,3.4,0,0,1,.94-2.34l.07-.07a2.88,2.88,0,0,0,.8-2L31.65,40a4.14,4.14,0,0,0-1-2.69h0a3.82,3.82,0,0,1-.45-.68,1.93,1.93,0,0,1,.52-2.3h0A2,2,0,0,1,32,33.86h3.87V58.09Z"/><path class="cls-4" d="M43.45,58.09V57a3.4,3.4,0,0,0-.94-2.34l-.07-.07a2.84,2.84,0,0,1-.8-2L40.12,40a4.14,4.14,0,0,1,1-2.69h0a3.87,3.87,0,0,0,.46-.68,1.93,1.93,0,0,0-.52-2.3h0a2,2,0,0,0-1.29-.49H35.88V58.09Z"/><path class="cls-5" d="M31.38,58.09V57a7.72,7.72,0,0,1,.33-2.34l0-.07a6.5,6.5,0,0,0,.28-2L33.24,40a9.88,9.88,0,0,0-.34-2.69h0a8.18,8.18,0,0,1-.28-2.21V33.86H34.7C34.7,43,34,50.23,34,58.09Z"/><rect class="cls-2" x="32.01" y="32.58" width="7.66" height="1.28"/><rect class="cls-2" x="31.05" y="29.83" width="9.58" height="1.28"/><path class="cls-4" d="M41.5,31.11H30.17a.74.74,0,0,0-.73.74h0a.73.73,0,0,0,.73.73H41.5a.74.74,0,0,0,.74-.73h0A.74.74,0,0,0,41.5,31.11Z"/><path class="cls-4" d="M42.52,29.83H29.16a.42.42,0,0,1-.42-.42h0a.42.42,0,0,1,.42-.42H42.52a.42.42,0,0,1,.42.42h0A.42.42,0,0,1,42.52,29.83Z"/><rect class="cls-5" x="32.3" y="31.11" width="2.07" height="1.47"/><path class="cls-6" d="M35.84,29V17.78a6,6,0,0,0-4.5-2.09c-2.88,0-5.45,2.11-5.45,6.1,0,5.57,5.91,7.2,5.91,7.2Z"/><path class="cls-4" d="M35.84,29V17.78a6,6,0,0,1,4.49-2.09c2.88,0,5.46,2.11,5.46,6.1,0,5.57-5.92,7.2-5.92,7.2Z"/><circle class="cls-5" cx="30.86" cy="19.38" r="1.58"/><path class="cls-5" d="M30,22.34a.81.81,0,1,1-.81-.8A.81.81,0,0,1,30,22.34Z"/><path class="cls-1" d="M37.9,15.69a2,2,0,1,1-2-2A2,2,0,0,1,37.9,15.69Z"/><path class="cls-5" d="M36.35,15.3a.85.85,0,1,1-.85-.85A.85.85,0,0,1,36.35,15.3Z"/><path class="cls-4" d="M37,6.59A1.09,1.09,0,1,1,35.88,5.5,1.08,1.08,0,0,1,37,6.59Z"/><circle class="cls-5" cx="35.68" cy="6.38" r="0.46"/></svg>