<svg id="Chess" xmlns="http://www.w3.org/2000/svg" viewBox="0 0 81 81"><defs><style>.cls-1{fill:#e31b24;}.cls-2{fill:#9b251f;}.cls-3{fill:#ffb25f;}.cls-4{fill:#f89622;}.cls-5{fill:#1d374f;}.cls-6{fill:#fff;}.cls-7{fill:#d36e00;}.cls-8{fill:#16a79e;}.cls-9{fill:#097f74;}.cls-10{fill:#2a4d68;}.cls-11{fill:#0e2033;}</style></defs><path class="cls-1" d="M37.56,18.86l.6-8.28s22.4-1.53,22.4,18.71c0,11.24-6.75,12.32-6.75,19.81s2,9.22,2,9.22L51,60.87S41,54.53,43.9,45.54a68.13,68.13,0,0,0,2.66-19.11A13.61,13.61,0,0,0,37.56,18.86Z"/><path class="cls-2" d="M51,60.87l3.46-1.81a37.25,37.25,0,0,0-1.78-4.27c-1.05-2.24-2-4.35-2-6.49a14.34,14.34,0,0,1,1.9-6.73,22.13,22.13,0,0,0,2.7-10.65c0-8.5-4.57-12.57-8.41-14.49a21.22,21.22,0,0,0-7.29-2l-1.6-.1-.33,4.56a13.61,13.61,0,0,1,9,7.57A68.13,68.13,0,0,1,43.9,45.54C41,54.53,51,60.87,51,60.87Z"/><path class="cls-3" d="M36.44,32.86a5.09,5.09,0,0,1-3.06.92c-2,0-4.4-1.43-6.85-1.43s-5,2.56-6.14,2.56S16.92,31.33,17.23,30s6.54-4.9,7.25-6-.1-2.35.72-3.17,9.42-3.57,9.42-3.57-1.92-3.89,0-4.81,3.36,4,3.36,4S53.1,16.2,53.1,30.92c0,8.59-4.6,10.53-4.6,17.38,0,5.31,4.6,9.61,4.6,15.33-9.4,0-24.84.82-24.84.82s-1.43-3-1.43-9.36C26.83,44.31,37.87,40.43,36.44,32.86Z"/><path class="cls-4" d="M38,51.88C38,43.8,42.27,40,42.27,31.74s-6.54-8-6.54-8,3.68,1.94,3.68,3.88-.62,3-3,5.21c1.43,7.57-9.61,11.45-9.61,22.23,0,6.38,1.43,9.36,1.43,9.36s5.83-.31,12.5-.55C39.37,60.43,38,55.94,38,51.88Z"/><path class="cls-5" d="M31,23.22a.83.83,0,0,1-.54,1.05l-1.87.59a.84.84,0,0,1-1.05-.55h0a.84.84,0,0,1,.55-1l1.86-.59a.84.84,0,0,1,1.05.55Z"/><path class="cls-6" d="M48.2,35.77a1.69,1.69,0,1,1-1.69-1.69A1.69,1.69,0,0,1,48.2,35.77Z"/><path class="cls-6" d="M50.18,29.35A2.38,2.38,0,1,1,47.8,27,2.37,2.37,0,0,1,50.18,29.35Z"/><path class="cls-7" d="M55.3,62.82H25.55a4.32,4.32,0,0,0-4.32,4.32H59.62A4.31,4.31,0,0,0,55.3,62.82Z"/><path class="cls-1" d="M60.55,70.55H20.3a1.7,1.7,0,0,1-1.7-1.7h0a1.71,1.71,0,0,1,1.7-1.71H60.55a1.72,1.72,0,0,1,1.71,1.71h0A1.71,1.71,0,0,1,60.55,70.55Z"/><path class="cls-2" d="M20.3,70.55H60.55a1.71,1.71,0,0,0,1.71-1.7H18.6A1.7,1.7,0,0,0,20.3,70.55Z"/><path class="cls-7" d="M41.46,27.47a6.23,6.23,0,0,0-5.35-3.69h-.38l.34.19.23.14c.26.16.58.37.92.62s.46.35.69.55a6,6,0,0,1,.92,1,2.62,2.62,0,0,1,.24.34,2.14,2.14,0,0,1,.34,1.08,4.72,4.72,0,0,1-.6,2.49,8.57,8.57,0,0,1-.91,1.23c-.39.45-.87.93-1.46,1.49a8.07,8.07,0,0,1-1.34,5.93C40.3,36.54,42.88,31.23,41.46,27.47Z"/><path class="cls-6" d="M45.21,47.18c-.34,6.1,3.68,11.41,3.84,15.39a.24.24,0,0,1-.25.25H45.64a.22.22,0,0,1-.22-.23c-.09-5.71-3.5-8.58-.66-15.51A.23.23,0,0,1,45.21,47.18Z"/><path class="cls-7" d="M35.14,12.32a1.23,1.23,0,0,0-.52.1c-1.92.92,0,4.81,0,4.81l1.17-.31S34.2,13,35.14,12.32Z"/><path class="cls-8" d="M37.74,85.38l.6-8.28s22.4-1.54,22.4,18.7c0,11.25-6.75,12.33-6.75,19.81s2,9.22,2,9.22l-4.87,2.56s-9.91-6.34-7.05-15.33a68.18,68.18,0,0,0,2.66-19.12A13.61,13.61,0,0,0,37.74,85.38Z"/><path class="cls-9" d="M51.13,127.39l3.46-1.82a37.84,37.84,0,0,0-1.78-4.26c-1.05-2.24-2-4.35-2-6.49a14.34,14.34,0,0,1,1.9-6.73,22.17,22.17,0,0,0,2.7-10.65c0-8.51-4.57-12.58-8.41-14.5a21.16,21.16,0,0,0-7.29-2l-1.6-.1-.33,4.56a13.61,13.61,0,0,1,9,7.56,68.18,68.18,0,0,1-2.66,19.12C41.22,121.05,51.13,127.39,51.13,127.39Z"/><path class="cls-10" d="M36.62,99.38a5.09,5.09,0,0,1-3.06.92c-2,0-4.4-1.43-6.85-1.43s-5,2.56-6.13,2.56-3.48-3.58-3.17-4.91,6.54-4.91,7.25-6-.1-2.35.72-3.17,9.42-3.58,9.42-3.58-1.92-3.88,0-4.8,3.36,4,3.36,4,15.12-.2,15.12,14.52c0,8.59-4.59,10.53-4.59,17.38,0,5.31,4.59,9.6,4.59,15.33-9.4,0-24.83.82-24.83.82S27,128,27,121.6C27,110.83,38.05,107,36.62,99.38Z"/><path class="cls-11" d="M35.32,78.84a1,1,0,0,0-.52.1c-1.92.92,0,4.8,0,4.8l1.17-.3S34.38,79.55,35.32,78.84Z"/></svg>