<svg id="Chess" xmlns="http://www.w3.org/2000/svg" viewBox="0 0 71 71"><defs><style>.cls-1{fill:#d36e00;}.cls-2{fill:#e31b24;}.cls-3{fill:#9b251f;}.cls-4{fill:#f89622;}.cls-5{fill:#fff;}.cls-6{fill:#ffb25f;}</style></defs><path class="cls-1" d="M46.11,59.93H24.77a3.1,3.1,0,0,0-3.1,3.1H49.21A3.1,3.1,0,0,0,46.11,59.93Z"/><path class="cls-2" d="M49.88,65.48H21a1.23,1.23,0,0,1-1.22-1.23h0A1.22,1.22,0,0,1,21,63H49.88a1.22,1.22,0,0,1,1.22,1.22h0A1.23,1.23,0,0,1,49.88,65.48Z"/><path class="cls-3" d="M21,65.48H49.88a1.23,1.23,0,0,0,1.22-1.23H19.78A1.23,1.23,0,0,0,21,65.48Z"/><rect class="cls-4" x="25.02" y="58.69" width="20.83" height="1.23"/><path class="cls-1" d="M46.31,58.69H24.57a.94.94,0,0,1-.94-.94h0a.94.94,0,0,1,.94-.94H46.31a.94.94,0,0,1,.94.94h0A.94.94,0,0,1,46.31,58.69Z"/><rect class="cls-5" x="29.5" y="58.69" width="3.58" height="1.23"/><path class="cls-6" d="M26.79,56.81V55.52a3.88,3.88,0,0,1,1.08-2.68l.08-.08a3.29,3.29,0,0,0,.91-2.27l1.73-14.35a4.71,4.71,0,0,0-1.13-3.07h0a3.93,3.93,0,0,1-.52-.78,2.23,2.23,0,0,1,.59-2.64h0A2.3,2.3,0,0,1,31,29.1h4.43V56.81Z"/><path class="cls-4" d="M44.09,56.81V55.52A3.87,3.87,0,0,0,43,52.84l-.08-.08A3.26,3.26,0,0,1,42,50.49L40.29,36.14a4.71,4.71,0,0,1,1.13-3.07h0a3.93,3.93,0,0,0,.52-.78,2.23,2.23,0,0,0-.59-2.64h0a2.28,2.28,0,0,0-1.48-.55H35.44V56.81Z"/><path class="cls-5" d="M30.29,56.81V55.52a9.18,9.18,0,0,1,.37-2.68l0-.08A7.59,7.59,0,0,0,31,50.49l1.42-14.35A11.28,11.28,0,0,0,32,33.07h0a9.28,9.28,0,0,1-.32-2.54V29.1h2.37c0,10.4-.82,18.72-.82,27.71Z"/><rect class="cls-1" x="31.01" y="27.64" width="8.76" height="1.46"/><rect class="cls-1" x="29.91" y="24.49" width="10.96" height="1.46"/><path class="cls-4" d="M41.87,26h-13a.84.84,0,0,0-.84.84h0a.85.85,0,0,0,.84.84h13a.85.85,0,0,0,.84-.84h0A.84.84,0,0,0,41.87,26Z"/><path class="cls-6" d="M27.12,14.23c2.25,2.77,3.15,6.51.94,9.3h7.38v-9.3Z"/><path class="cls-4" d="M43.76,14.23c-2.25,2.77-3.15,6.51-.94,9.3H35.44v-9.3Z"/><path class="cls-4" d="M43,24.49H27.75a.49.49,0,0,1-.49-.48h0a.48.48,0,0,1,.49-.48H43a.48.48,0,0,1,.48.48h0A.49.49,0,0,1,43,24.49Z"/><path class="cls-4" d="M44.65,14.23H26.12a.49.49,0,0,1-.48-.48h0a.48.48,0,0,1,.48-.48H44.65a.48.48,0,0,1,.49.48h0A.49.49,0,0,1,44.65,14.23Z"/><path class="cls-6" d="M43.76,13.27C37.21,8,33.67,8,27.12,13.27Z"/><circle class="cls-2" cx="35.44" cy="7.78" r="2.31"/><path class="cls-5" d="M36,7.34a1,1,0,1,1-1-1A1,1,0,0,1,36,7.34Z"/><path class="cls-1" d="M43.76,14.23a11.26,11.26,0,0,0-1,1.4H35.44v-1.4Z"/><path class="cls-5" d="M33.08,15.63h-1.8a15.34,15.34,0,0,1-.05,7.9H33A15.34,15.34,0,0,0,33.08,15.63Z"/><rect class="cls-5" x="31.34" y="25.96" width="2.36" height="1.68"/><path class="cls-1" d="M27.12,14.23a11.26,11.26,0,0,1,1,1.4h7.35v-1.4Z"/></svg>