<svg id="Chess" xmlns="http://www.w3.org/2000/svg" viewBox="0 0 81 81"><defs><style>.cls-1{fill:#0e2033;}.cls-2{fill:#16a79e;}.cls-3{fill:#097f74;}.cls-4{fill:#1d374f;}.cls-5{fill:#2a4d68;}.cls-6{fill:#fff;}</style></defs><path class="cls-1" d="M55.32,62.57H24.67A4.45,4.45,0,0,0,20.22,67H59.78A4.46,4.46,0,0,0,55.32,62.57Z"/><path class="cls-2" d="M60.73,70.54H19.26a1.77,1.77,0,0,1-1.76-1.76h0A1.77,1.77,0,0,1,19.26,67H60.73a1.76,1.76,0,0,1,1.76,1.76h0A1.76,1.76,0,0,1,60.73,70.54Z"/><path class="cls-3" d="M19.26,70.54H60.73a1.76,1.76,0,0,0,1.76-1.76h-45A1.77,1.77,0,0,0,19.26,70.54Z"/><rect class="cls-4" x="25.59" y="60.86" width="28.81" height="1.71"/><path class="cls-5" d="M56,60.86H24a1.39,1.39,0,0,1-1.39-1.38h0A1.39,1.39,0,0,1,24,58.09H56a1.38,1.38,0,0,1,1.38,1.39h0A1.38,1.38,0,0,1,56,60.86Z"/><rect class="cls-4" x="25.59" y="56.39" width="28.81" height="1.71"/><path class="cls-5" d="M56,56.39H24A1.4,1.4,0,0,1,22.62,55h0A1.4,1.4,0,0,1,24,53.61H56A1.39,1.39,0,0,1,57.37,55h0A1.39,1.39,0,0,1,56,56.39Z"/><path class="cls-5" d="M26.58,53.61l-1.4-2.25A5.07,5.07,0,0,1,25,46.24l6.1-18.38a5.42,5.42,0,0,0,.67-2.61v-4H40V53.61Z"/><path class="cls-4" d="M53.42,53.61l1.4-2.25A5.1,5.1,0,0,0,55,46.24L48.85,27.86a5.42,5.42,0,0,1-.67-2.61v-4H40V53.61Z"/><rect class="cls-1" x="31.81" y="21.29" width="16.37" height="2.91"/><path class="cls-5" d="M52.42,18.44V12a1.48,1.48,0,0,0-1.48-1.48H47.31A1.48,1.48,0,0,0,45.83,12v3.57H43.29V12a1.48,1.48,0,0,0-1.48-1.48H38.18A1.48,1.48,0,0,0,36.7,12v3.57H34.17V12a1.48,1.48,0,0,0-1.48-1.48H29.05A1.48,1.48,0,0,0,27.57,12v6.42h0a2.86,2.86,0,0,0,2.85,2.85H49.57a2.86,2.86,0,0,0,2.85-2.85Z"/><path class="cls-4" d="M50.94,10.54H47.31A1.48,1.48,0,0,0,45.83,12v3.57H43.29V12a1.48,1.48,0,0,0-1.48-1.48H40V21.29h9.57a2.86,2.86,0,0,0,2.85-2.85h0V12A1.48,1.48,0,0,0,50.94,10.54Z"/><path class="cls-1" d="M25.18,51.36l1.4,2.25H40V51.2H25.09A1.29,1.29,0,0,0,25.18,51.36Z"/><path class="cls-1" d="M54.82,51.36l-1.4,2.25H40V51.2H54.9S54.85,51.31,54.82,51.36Z"/><polygon class="cls-6" points="35.16 24.2 35.16 26.95 29.65 47.66 29.65 51.2 34.6 51.2 34.6 47.66 38.05 26.95 38.05 24.2 35.16 24.2"/><rect class="cls-6" x="29.65" y="56.39" width="4.95" height="1.71"/><rect class="cls-6" x="29.65" y="60.86" width="4.95" height="1.71"/></svg>