<svg id="Chess" xmlns="http://www.w3.org/2000/svg" viewBox="0 0 81 81"><defs><style>.cls-1{fill:#16a79e;}.cls-2{fill:#097f74;}.cls-3{fill:#2a4d68;}.cls-4{fill:#1d374f;}.cls-5{fill:#fff;}.cls-6{fill:#0e2033;}</style></defs><path class="cls-1" d="M37.31,18.75l.59-8.28s22.4-1.54,22.4,18.7c0,11.25-6.74,12.33-6.74,19.81s2,9.22,2,9.22L50.7,60.76s-9.92-6.34-7.06-15.34a67.89,67.89,0,0,0,2.67-19.11A13.62,13.62,0,0,0,37.31,18.75Z"/><path class="cls-2" d="M50.7,60.76l3.46-1.82a38,38,0,0,0-1.78-4.27c-1.05-2.23-2-4.34-2-6.49a14.33,14.33,0,0,1,1.9-6.72,22.28,22.28,0,0,0,2.7-10.65c0-8.51-4.58-12.58-8.41-14.5a21.22,21.22,0,0,0-7.29-2l-1.6-.11-.33,4.57a13.62,13.62,0,0,1,9,7.56,67.89,67.89,0,0,1-2.67,19.11C40.78,54.42,50.7,60.76,50.7,60.76Z"/><path class="cls-3" d="M36.19,32.75a5.14,5.14,0,0,1-3.07.92c-1.94,0-4.39-1.43-6.85-1.43s-5,2.55-6.13,2.55-3.48-3.57-3.17-4.9,6.54-4.91,7.26-6-.1-2.35.71-3.17,9.43-3.58,9.43-3.58-1.93-3.88,0-4.8,3.35,4,3.35,4,15.13-.2,15.13,14.52c0,8.58-4.6,10.53-4.6,17.37,0,5.32,4.6,9.61,4.6,15.34-9.4,0-24.84.81-24.84.81s-1.43-3-1.43-9.36C26.58,44.2,37.62,40.31,36.19,32.75Z"/><path class="cls-4" d="M37.72,51.76C37.72,43.69,42,39.9,42,31.62s-6.54-8-6.54-8,3.68,1.94,3.68,3.89-.61,3-3,5.21C37.62,40.31,26.58,44.2,26.58,55c0,6.38,1.43,9.36,1.43,9.36s5.82-.3,12.49-.54C39.12,60.32,37.72,55.82,37.72,51.76Z"/><path class="cls-4" d="M30.73,23.1a.84.84,0,0,1-.55,1.06l-1.86.58a.83.83,0,0,1-1.05-.54h0a.83.83,0,0,1,.54-1.05l1.87-.59a.83.83,0,0,1,1.05.54Z"/><path class="cls-5" d="M47.94,35.65A1.69,1.69,0,1,1,46.26,34,1.69,1.69,0,0,1,47.94,35.65Z"/><path class="cls-5" d="M49.93,29.23a2.39,2.39,0,1,1-2.38-2.38A2.39,2.39,0,0,1,49.93,29.23Z"/><path class="cls-6" d="M55.05,62.7H25.3A4.32,4.32,0,0,0,21,67H59.37A4.32,4.32,0,0,0,55.05,62.7Z"/><path class="cls-1" d="M60.3,70.44H20.05a1.72,1.72,0,0,1-1.71-1.71h0A1.72,1.72,0,0,1,20.05,67H60.3A1.72,1.72,0,0,1,62,68.73h0A1.72,1.72,0,0,1,60.3,70.44Z"/><path class="cls-2" d="M20.05,70.44H60.3A1.72,1.72,0,0,0,62,68.73H18.34A1.72,1.72,0,0,0,20.05,70.44Z"/><path class="cls-6" d="M41.2,27.35a6.23,6.23,0,0,0-5.34-3.69h-.39l.34.19.24.15c.26.16.58.37.92.61s.46.35.69.55a6.4,6.4,0,0,1,.92,1c.08.11.16.23.23.35a2.11,2.11,0,0,1,.34,1.08,4.62,4.62,0,0,1-.6,2.49,7.28,7.28,0,0,1-.91,1.23c-.38.44-.86.93-1.45,1.49a8.14,8.14,0,0,1-1.35,5.93C40.05,36.42,42.63,31.12,41.2,27.35Z"/><path class="cls-5" d="M45,47.07c-.35,6.1,3.68,11.41,3.84,15.39a.25.25,0,0,1-.25.24H45.38a.22.22,0,0,1-.22-.23c-.09-5.71-3.49-8.57-.65-15.5A.23.23,0,0,1,45,47.07Z"/><path class="cls-6" d="M34.88,12.21a1,1,0,0,0-.51.1c-1.93.92,0,4.8,0,4.8l1.16-.3S34,12.92,34.88,12.21Z"/></svg>