<svg id="Chess" xmlns="http://www.w3.org/2000/svg" viewBox="0 0 71 71"><defs><style>.cls-1{fill:#2a4d68;}.cls-2{fill:#1d374f;}.cls-3{fill:#0e2033;}.cls-4{fill:#16a79e;}.cls-5{fill:#097f74;}.cls-6{fill:#fff;}</style></defs><path class="cls-1" d="M27.54,18.67c0-4.69,4.26-11.62,8.14-8.15V26C31.18,26,27.54,23.37,27.54,18.67Z"/><path class="cls-2" d="M43.81,18.67c0-4.69-4.25-11.62-8.13-8.15V26C40.17,26,43.81,23.37,43.81,18.67Z"/><path class="cls-3" d="M48,59.29H23.31a3.59,3.59,0,0,0-3.59,3.59H51.63A3.59,3.59,0,0,0,48,59.29Z"/><path class="cls-4" d="M52.4,65.72H19a1.43,1.43,0,0,1-1.42-1.42h0A1.43,1.43,0,0,1,19,62.88H52.4a1.43,1.43,0,0,1,1.42,1.42h0A1.43,1.43,0,0,1,52.4,65.72Z"/><path class="cls-5" d="M19,65.72H52.4a1.43,1.43,0,0,0,1.42-1.42H17.53A1.43,1.43,0,0,0,19,65.72Z"/><rect class="cls-2" x="23.61" y="57.86" width="24.13" height="1.43"/><path class="cls-3" d="M49.07,57.86H22.28a1.17,1.17,0,0,1-1.16-1.16h0a1.17,1.17,0,0,1,1.16-1.16H49.07a1.16,1.16,0,0,1,1.16,1.16h0A1.16,1.16,0,0,1,49.07,57.86Z"/><rect class="cls-6" x="28.79" y="57.86" width="4.15" height="1.43"/><path class="cls-1" d="M26.44,55.54V54.16a4.12,4.12,0,0,1,1.15-2.86l.08-.08a3.52,3.52,0,0,0,1-2.43L30.5,33.47a5,5,0,0,0-1.21-3.28h0a4.24,4.24,0,0,1-.56-.84,2.38,2.38,0,0,1,.64-2.81h0A2.37,2.37,0,0,1,30.94,26h4.74V55.54Z"/><path class="cls-2" d="M44.91,55.54V54.16a4.12,4.12,0,0,0-1.15-2.86l-.08-.08a3.52,3.52,0,0,1-1-2.43L40.85,33.47a5,5,0,0,1,1.21-3.28h0a4.24,4.24,0,0,0,.56-.84A2.37,2.37,0,0,0,42,26.54h0A2.37,2.37,0,0,0,40.41,26H35.68V55.54Z"/><rect class="cls-3" x="27.29" y="24.09" width="16.77" height="1.86" rx="0.93"/><circle class="cls-4" cx="35.68" cy="8.34" r="2.62"/><circle class="cls-6" cx="35.17" cy="7.83" r="1.1"/><path class="cls-6" d="M30.18,55.54V54.16a9.64,9.64,0,0,1,.39-2.86l0-.08a8,8,0,0,0,.34-2.43l1.51-15.32A11.93,11.93,0,0,0,32,30.19h0a10.09,10.09,0,0,1-.34-2.71V26H34c0,2,.27,5,.27,7,0,11.1-.87,13-.87,22.59Z"/><path class="cls-6" d="M33.06,14.08a1.2,1.2,0,1,1-1.2-1.19A1.19,1.19,0,0,1,33.06,14.08Z"/><path class="cls-6" d="M33.63,18.61a2,2,0,1,1-2-2A2,2,0,0,1,33.63,18.61Z"/></svg>