<svg id="Chess" xmlns="http://www.w3.org/2000/svg" viewBox="0 0 71 71"><defs><style>.cls-1{fill:#16a79e;}.cls-2{fill:#0e2033;}.cls-3{fill:#097f74;}.cls-4{fill:#1d374f;}.cls-5{fill:#fff;}.cls-6{fill:#2a4d68;}</style></defs><path class="cls-1" d="M36.09,15.26h0a.6.6,0,0,1-.6-.6V7.41a.6.6,0,0,1,.6-.6h0a.6.6,0,0,1,.59.6v7.25A.6.6,0,0,1,36.09,15.26Z"/><path class="cls-1" d="M39.06,9.84h0a.6.6,0,0,1-.6.6H33.71a.6.6,0,0,1-.6-.6h0a.6.6,0,0,1,.6-.6h4.75A.6.6,0,0,1,39.06,9.84Z"/><path class="cls-2" d="M45.21,60.71H27a2.65,2.65,0,0,0-2.65,2.65H47.87A2.66,2.66,0,0,0,45.21,60.71Z"/><path class="cls-1" d="M48.44,65.46H23.73a1,1,0,0,1-1.05-1h0a1,1,0,0,1,1.05-1H48.44a1.06,1.06,0,0,1,1.05,1h0A1.06,1.06,0,0,1,48.44,65.46Z"/><path class="cls-3" d="M23.73,65.46H48.44a1.06,1.06,0,0,0,1.05-1H22.68A1,1,0,0,0,23.73,65.46Z"/><rect class="cls-4" x="27.17" y="59.65" width="17.82" height="1.06"/><path class="cls-2" d="M45.38,59.65H26.79a.8.8,0,0,1-.81-.8h0a.81.81,0,0,1,.81-.81H45.38a.81.81,0,0,1,.81.81h0A.8.8,0,0,1,45.38,59.65Z"/><rect class="cls-5" x="31" y="59.65" width="3.06" height="1.06"/><path class="cls-6" d="M28.52,58V56.91a3.36,3.36,0,0,1,.94-2.33l.07-.08a2.82,2.82,0,0,0,.8-2L31.85,40a4.15,4.15,0,0,0-1-2.69h0a3.13,3.13,0,0,1-.46-.68,1.94,1.94,0,0,1,.52-2.3h0a2,2,0,0,1,1.29-.48h3.88V58Z"/><path class="cls-4" d="M43.65,58V56.91a3.36,3.36,0,0,0-.94-2.33l-.07-.08a2.82,2.82,0,0,1-.8-2L40.32,40a4.15,4.15,0,0,1,1-2.69h0a3.13,3.13,0,0,0,.46-.68,1.94,1.94,0,0,0-.52-2.3h0A2,2,0,0,0,40,33.82H36.09V58Z"/><path class="cls-5" d="M31.59,58V56.91a7.63,7.63,0,0,1,.32-2.33l0-.08a6.43,6.43,0,0,0,.28-2L33.44,40a9.93,9.93,0,0,0-.34-2.69h0a8.13,8.13,0,0,1-.28-2.21V33.82H34.9c0,9.09-.72,16.37-.72,24.22Z"/><rect class="cls-2" x="32.21" y="32.54" width="7.66" height="1.28"/><rect class="cls-2" x="31.25" y="29.79" width="9.58" height="1.28"/><path class="cls-4" d="M41.7,31.07H30.37a.73.73,0,0,0-.73.73h0a.74.74,0,0,0,.73.74H41.7a.74.74,0,0,0,.74-.74h0A.74.74,0,0,0,41.7,31.07Z"/><path class="cls-4" d="M42.72,29.79H29.36a.42.42,0,0,1-.42-.42h0a.42.42,0,0,1,.42-.42H42.72a.42.42,0,0,1,.42.42h0A.42.42,0,0,1,42.72,29.79Z"/><rect class="cls-5" x="32.5" y="31.07" width="2.07" height="1.47"/><path class="cls-6" d="M36,29V17.73a6,6,0,0,0-4.5-2.08c-2.88,0-5.45,2.1-5.45,6.09C26.09,27.32,32,29,32,29Z"/><path class="cls-4" d="M36,29V17.73a6,6,0,0,1,4.49-2.08c2.88,0,5.46,2.1,5.46,6.09C46,27.32,40.08,29,40.08,29Z"/><circle class="cls-5" cx="31.06" cy="19.33" r="1.58"/><path class="cls-5" d="M30.17,22.3a.81.81,0,1,1-.81-.81A.8.8,0,0,1,30.17,22.3Z"/><path class="cls-1" d="M38.1,15.65a2,2,0,1,1-2-2A2,2,0,0,1,38.1,15.65Z"/><path class="cls-5" d="M36.55,15.26a.85.85,0,1,1-.85-.85A.85.85,0,0,1,36.55,15.26Z"/><path class="cls-4" d="M37.17,6.54a1.09,1.09,0,1,1-1.08-1.08A1.09,1.09,0,0,1,37.17,6.54Z"/><circle class="cls-5" cx="35.88" cy="6.33" r="0.46"/></svg>