<svg id="Chess" xmlns="http://www.w3.org/2000/svg" viewBox="0 0 81 81"><defs><style>.cls-1{fill:#2a4d68;}.cls-2{fill:#1d374f;}.cls-3{fill:#0e2033;}.cls-4{fill:#fff;}.cls-5{fill:#16a79e;}.cls-6{fill:#097f74;}</style></defs><path class="cls-1" d="M40.77,51.83h9.34c2.18,0,4,3.75,4,8.37H40.77Z"/><path class="cls-2" d="M40.77,51.83H31.43c-2.18,0-3.95,3.75-3.95,8.37H40.77Z"/><path class="cls-1" d="M52.06,51.83C52.06,40.49,44,36.67,44,31.67H40.77V51.83Z"/><path class="cls-2" d="M29.48,51.83c0-11.34,8.08-15.16,8.08-20.16h3.21V51.83Z"/><path class="cls-3" d="M25.89,60.23H55.65A4.31,4.31,0,0,1,60,64.55H21.57A4.31,4.31,0,0,1,25.89,60.23Z"/><circle class="cls-2" cx="40.77" cy="20.98" r="8.01"/><path class="cls-1" d="M48.78,21c0,.1,0,.2,0,.31A6.33,6.33,0,1,1,40.46,13h.31A8,8,0,0,1,48.78,21Z"/><path class="cls-4" d="M40.28,18.61A2.76,2.76,0,1,0,43,15.85,2.77,2.77,0,0,0,40.28,18.61Z"/><path class="cls-1" d="M38,32h5.58a1.87,1.87,0,0,0,1.87-1.86h0a1.87,1.87,0,0,0-1.87-1.87H38a1.87,1.87,0,0,0-1.87,1.87h0A1.87,1.87,0,0,0,38,32Z"/><path class="cls-3" d="M43.56,32H38a1.87,1.87,0,0,1-1.87-1.86h9.32A1.87,1.87,0,0,1,43.56,32Z"/><path class="cls-5" d="M20.64,68H60.9a1.72,1.72,0,0,0,1.71-1.71h0a1.72,1.72,0,0,0-1.71-1.71H20.64a1.72,1.72,0,0,0-1.71,1.71h0A1.72,1.72,0,0,0,20.64,68Z"/><path class="cls-6" d="M60.9,68H20.64a1.72,1.72,0,0,1-1.71-1.71H62.61A1.72,1.72,0,0,1,60.9,68Z"/><path class="cls-4" d="M49.53,51.83c0-11.34-7.12-14.8-7.12-19.81H41.33c0,5.77,4.1,10.93,4.1,19.81Z"/><path class="cls-4" d="M49.72,53.17a14.14,14.14,0,0,1,1.79,7H46.83a19.32,19.32,0,0,0-1.4-7Z"/><path class="cls-3" d="M29.06,53.17H52.48a.68.68,0,0,0,.67-.67h0a.67.67,0,0,0-.67-.67H29.06a.67.67,0,0,0-.67.67h0A.68.68,0,0,0,29.06,53.17Z"/></svg>