<svg id="Chess" xmlns="http://www.w3.org/2000/svg" viewBox="0 0 71 71"><defs><style>.cls-1{fill:#0e2033;}.cls-2{fill:#16a79e;}.cls-3{fill:#097f74;}.cls-4{fill:#1d374f;}.cls-5{fill:#fff;}.cls-6{fill:#2a4d68;}</style></defs><path class="cls-1" d="M46,60.2H24.61a3.1,3.1,0,0,0-3.1,3.1H49.06A3.1,3.1,0,0,0,46,60.2Z"/><path class="cls-2" d="M49.72,65.75H20.85a1.23,1.23,0,0,1-1.23-1.23h0a1.23,1.23,0,0,1,1.23-1.22H49.72A1.23,1.23,0,0,1,51,64.52h0A1.23,1.23,0,0,1,49.72,65.75Z"/><path class="cls-3" d="M20.85,65.75H49.72A1.23,1.23,0,0,0,51,64.52H19.62A1.24,1.24,0,0,0,20.85,65.75Z"/><rect class="cls-4" x="24.87" y="58.96" width="20.83" height="1.23"/><path class="cls-1" d="M46.15,59H24.42a.94.94,0,0,1-.94-.94h0a.94.94,0,0,1,.94-.94H46.15a1,1,0,0,1,1,.94h0A1,1,0,0,1,46.15,59Z"/><rect class="cls-5" x="29.34" y="58.96" width="3.58" height="1.23"/><path class="cls-6" d="M26.64,57.08V55.79a3.83,3.83,0,0,1,1.07-2.67l.08-.09a3.26,3.26,0,0,0,.92-2.27l1.73-14.35a4.67,4.67,0,0,0-1.14-3.07h0a4.36,4.36,0,0,1-.51-.78,2.23,2.23,0,0,1,.59-2.64h0a2.28,2.28,0,0,1,1.48-.55h4.43V57.08Z"/><path class="cls-4" d="M43.94,57.08V55.79a3.83,3.83,0,0,0-1.08-2.67L42.78,53a3.29,3.29,0,0,1-.91-2.27L40.13,36.41a4.72,4.72,0,0,1,1.14-3.07h0a4.41,4.41,0,0,0,.52-.78,2.24,2.24,0,0,0-.59-2.64h0a2.3,2.3,0,0,0-1.48-.55H35.29V57.08Z"/><path class="cls-5" d="M30.14,57.08V55.79a8.74,8.74,0,0,1,.37-2.67l0-.09a7.59,7.59,0,0,0,.31-2.27l1.42-14.35a11.28,11.28,0,0,0-.39-3.07h0a9.28,9.28,0,0,1-.32-2.54V29.37h2.37c0,10.4-.82,18.72-.82,27.71Z"/><rect class="cls-1" x="30.86" y="27.91" width="8.76" height="1.46"/><rect class="cls-1" x="29.76" y="24.76" width="10.96" height="1.46"/><path class="cls-4" d="M41.71,26.23h-13a.84.84,0,0,0-.84.84h0a.85.85,0,0,0,.84.84h13a.84.84,0,0,0,.84-.84h0A.83.83,0,0,0,41.71,26.23Z"/><path class="cls-6" d="M27,14.5c2.24,2.77,3.15,6.51.94,9.3h7.38V14.5Z"/><path class="cls-4" d="M43.6,14.5c-2.24,2.77-3.15,6.51-.94,9.3H35.29V14.5Z"/><path class="cls-4" d="M42.88,24.76H27.59a.49.49,0,0,1-.48-.48h0a.48.48,0,0,1,.48-.48H42.88a.48.48,0,0,1,.48.48h0A.49.49,0,0,1,42.88,24.76Z"/><path class="cls-4" d="M44.5,14.5H26a.49.49,0,0,1-.49-.48h0a.48.48,0,0,1,.49-.48H44.5A.47.47,0,0,1,45,14h0A.48.48,0,0,1,44.5,14.5Z"/><path class="cls-6" d="M43.6,13.54c-6.54-5.28-10.09-5.28-16.63,0Z"/><circle class="cls-2" cx="35.29" cy="8.06" r="2.31" transform="translate(19.34 40.55) rotate(-76.72)"/><circle class="cls-5" cx="34.84" cy="7.61" r="0.97"/><path class="cls-1" d="M43.6,14.5a10.21,10.21,0,0,0-1,1.4H35.29V14.5Z"/><path class="cls-5" d="M32.93,15.9h-1.8a15.44,15.44,0,0,1-.05,7.9h1.8A15.34,15.34,0,0,0,32.93,15.9Z"/><rect class="cls-5" x="31.18" y="26.23" width="2.36" height="1.68"/><path class="cls-1" d="M27,14.5a10.21,10.21,0,0,1,1,1.4h7.36V14.5Z"/></svg>